:SAMPLES-PER-SECOND 30
:FULLY-SPECIFIED
:DEGREES
16
root  82.4277 40.3884 27.4278 -107.869 -84.5672 107.673
RightUpLeg  -0.825659 -10.3896 -9.69628
RightLeg  7.78306 -0.597801 2.30548
RightFoot  -7.81058 -0.0712455 0.591033
RightToes  1.74622e-010 0 -3.6325e-017
Spine  8.92727 1.05393 21.8004
Spine1  -11.8239 6.39462 -48.9005
HEad  15.9577 -11.172 18.8793
LeftShoulder1  25.6375 -48.6946 -41.4166
LeftArm  47.9206 44.6698 17.8185
LeftForeArm  -29.3626 -75.2711 -57.7189
LeftHand  -0.244104 0.0205437 5.32207
RightShoulder  6.37674 7.01991 52.9271
RightArm  -8.81772 -24.2688 -10.4353
RightForeArm  -13.0765 12.2403 5.25628
RightHand  -1.22405 3.31409 -16.4717
LeftUpLeg  0.0889358 2.93761 -1.72919
LeftLeg  6.08921 12.4039 -2.88712
LeftFoot  -0.189844 0.374698 -3.82619
LeftToes  -3.34697e-010 -1.70107e-010 -9.05613e-011
17
root  82.275 40.3654 27.2831 -106.033 -84.4981 106.081
RightUpLeg  -0.946554 -10.5794 -9.64771
RightLeg  8.1956 -0.595624 2.32293
RightFoot  -8.59386 -0.076922 0.77616
RightToes  1.74622e-010 0 -3.6325e-017
Spine  6.50828 2.38984 22.1917
Spine1  -9.6665 8.38641 -49.6894
HEad  15.6558 -11.9322 20.3132
LeftShoulder1  27.1176 -52.1583 -40.7829
LeftArm  50.8686 48.3202 17.9647
LeftForeArm  -20.27 -76.4802 -67.4438
LeftHand  -0.244104 0.0205437 5.32207
RightShoulder  8.05433 8.23931 59.4089
RightArm  -9.95769 -26.5085 -9.16825
RightForeArm  -13.4297 12.9541 4.84661
RightHand  -1.03905 2.61601 -15.2191
LeftUpLeg  -0.12237 2.87179 -1.68811
LeftLeg  6.49728 12.3202 -2.72878
LeftFoot  -0.673396 0.381682 -4.04722
LeftToes  -3.34697e-010 -1.70107e-010 -9.05613e-011
18
root  82.0796 40.3369 27.1045 -104.272 -84.391 104.296
RightUpLeg  -0.706332 -10.7837 -9.6419
RightLeg  8.61247 -0.51596 2.33492
RightFoot  -9.44732 -0.0776959 0.82179
RightToes  1.74622e-010 0 -3.6325e-017
Spine  4.2059 3.87298 22.5544
Spine1  -7.61948 10.4892 -50.265
HEad  15.137 -12.5283 21.7108
LeftShoulder1  28.718 -56.5974 -39.4357
LeftArm  52.1565 52.8655 16.9547
LeftForeArm  -9.89076 -77.2774 -79.3588
LeftHand  -0.244104 0.0205437 5.32207
RightShoulder  10.0242 9.48124 65.9032
RightArm  -11.9439 -28.7396 -7.04214
RightForeArm  -13.8859 13.5278 4.36185
RightHand  -0.926926 2.14584 -14.4208
LeftUpLeg  -0.00184214 2.95726 -1.51759
LeftLeg  6.98221 12.105 -2.68267
LeftFoot  -1.18166 0.435422 -4.81931
LeftToes  -3.34697e-010 -1.70107e-010 -9.05613e-011
19
root  81.8507 40.2926 26.8959 -101.815 -84.4401 101.363
RightUpLeg  0.0690143 -10.8957 -9.47746
RightLeg  9.08057 -0.507121 2.25866
RightFoot  -10.3292 -0.0763815 0.715083
RightToes  1.74622e-010 0 -3.6325e-017
Spine  2.97716 4.49935 23.3636
Spine1  -6.62803 11.4336 -50.8478
HEad  14.8959 -13.0474 22.8072
LeftShoulder1  30.2754 -55.6576 -43.5842
LeftArm  64.357 51.3365 19.4366
LeftForeArm  -6.98422 -74.8836 -76.1379
LeftHand  -0.244104 0.0205437 5.32207
RightShoulder  12.1385 10.6821 71.7486
RightArm  -13.9309 -30.3408 -3.99561
RightForeArm  -13.8795 13.7375 4.01946
RightHand  -0.850573 1.92794 -13.6385
LeftUpLeg  0.354911 3.23015 -1.14512
LeftLeg  8.1149 11.9085 -2.45325
LeftFoot  -1.8648 0.460704 -5.41556
LeftToes  -3.34697e-010 -1.70107e-010 -9.05613e-011
20
root  81.6308 40.2174 26.6845 -96.916 -84.8242 95.8076
RightUpLeg  1.01575 -11.0195 -9.02181
RightLeg  9.67071 -0.732547 2.15959
RightFoot  -11.1801 -0.0764665 0.523036
RightToes  1.74622e-010 0 -3.6325e-017
Spine  3.92687 2.46209 24.8935
Spine1  -7.79414 9.13442 -51.8109
HEad  16.117 -13.9843 23.3032
LeftShoulder1  31.2128 -39.6652 -61.6014
LeftArm  114.219 34.9262 35.6336
LeftForeArm  171.436 -86.0165 101.473
LeftHand  -0.244104 0.0205437 5.32207
RightShoulder  14.0328 11.6753 76.2225
RightArm  -14.2351 -29.5638 -0.173424
RightForeArm  -13.8826 12.8903 4.25703
RightHand  -0.772373 1.56929 -13.0275
LeftUpLeg  0.132499 4.17094 -0.646944
LeftLeg  10.7089 10.9822 -1.59269
LeftFoot  -3.06559 0.416953 -5.54064
LeftToes  -3.34697e-010 -1.70107e-010 -9.05613e-011
